<?xml version="1.0" standalone="no"?>
<!DOCTYPE svg PUBLIC "-//W3C//DTD SVG 20010904//EN"
 "http://www.w3.org/TR/2001/REC-SVG-20010904/DTD/svg10.dtd">
<svg version="1.0" xmlns="http://www.w3.org/2000/svg"
 width="160.000000pt" height="38.000000pt" viewBox="0 0 160.000000 38.000000"
 preserveAspectRatio="xMidYMid meet">
<metadata>
Created by potrace 1.13, written by Peter Selinger 2001-2015
</metadata>
<g transform="translate(0.000000,38.000000) scale(0.100000,-0.100000)"
fill="#000000" stroke="none">
<path d="M86 365 c-58 -20 -86 -65 -86 -137 0 -108 87 -174 175 -132 36 17 65
57 51 71 -4 4 -18 -7 -31 -24 -59 -75 -152 -39 -168 65 -12 77 32 142 96 142
33 0 45 -6 73 -37 29 -31 34 -34 34 -17 0 51 -83 90 -144 69z"/>
<path d="M876 357 c-20 -17 -25 -27 -16 -32 14 -9 54 28 48 45 -2 7 -14 2 -32
-13z"/>
<path d="M1157 373 c-4 -3 -7 -48 -7 -100 0 -110 -15 -157 -54 -167 -65 -16
-107 57 -74 129 6 14 22 28 35 31 27 7 31 24 5 24 -29 0 -59 -31 -70 -74 -25
-88 51 -161 127 -121 28 14 31 14 31 0 0 -8 5 -15 10 -15 6 0 10 57 10 150 0
83 -1 150 -3 150 -2 0 -7 -3 -10 -7z"/>
<path d="M1367 373 c-4 -3 -7 -55 -7 -114 0 -118 -12 -149 -62 -154 -27 -3
-67 25 -69 48 0 7 -2 20 -4 31 -6 30 13 65 40 78 28 13 33 28 9 28 -8 0 -29
-14 -46 -30 -28 -28 -30 -35 -26 -82 8 -77 66 -116 128 -85 27 14 30 14 30 -1
1 -16 1 -16 13 0 9 11 13 55 12 147 -1 126 -4 149 -18 134z"/>
<path d="M289 261 c-69 -69 -9 -194 85 -177 36 7 56 24 72 63 44 103 -79 192
-157 114z m120 -17 c37 -47 23 -116 -26 -135 -63 -24 -120 46 -93 112 23 55
84 67 119 23z"/>
<path d="M480 189 c0 -54 4 -101 10 -104 11 -7 11 -5 15 80 1 33 3 66 4 73 0
7 12 18 26 24 21 9 28 8 45 -7 17 -15 20 -31 20 -97 0 -45 4 -78 10 -78 6 0
10 10 11 23 0 12 1 47 2 78 3 81 35 111 76 70 14 -14 18 -32 16 -85 -1 -45 3
-70 12 -77 11 -9 13 3 13 70 0 74 -2 84 -25 106 -27 28 -52 31 -81 11 -14 -11
-22 -11 -32 -3 -7 6 -38 11 -68 12 l-54 2 0 -98z"/>
<path d="M795 260 c-76 -79 6 -211 105 -170 47 20 65 56 61 123 -1 10 -14 32
-30 48 -41 41 -96 41 -136 -1z m120 -15 c60 -59 0 -165 -78 -136 -49 19 -63
88 -26 135 27 34 71 35 104 1z"/>
<path d="M1410 286 c0 -2 21 -48 46 -102 l47 -99 -15 -42 c-12 -33 -13 -43 -3
-43 13 0 119 279 110 289 -10 10 -24 -15 -53 -93 l-29 -79 -41 86 c-23 48 -46
87 -52 87 -5 0 -10 -2 -10 -4z"/>
</g>
</svg>
